<svg xmlns="http://www.w3.org/2000/svg" viewBox="0 0 100 230" fill="#060606" aria-label="Stick figure as letter I">
  <title>John Stick wall lockup: letter I silhouette (WS-110)</title>
  <desc>Flat #060606 only. Thick capsule read. Keep in sync with drawStickmanAsI in src/game/level/dojoTitleLogoWall.ts.</desc>
  <!-- Katana on back (behind body) -->
  <path d="M 66 46 L 22 142 L 17 138 L 61 42 Z"/>
  <!-- Legs -->
  <path d="M 41 118 L 18 174 L 26 176 L 43 120 Z"/>
  <path d="M 59 118 L 82 174 L 74 176 L 57 120 Z"/>
  <!-- Feet (horizontal pills) -->
  <ellipse cx="14" cy="178" rx="12" ry="4.2"/>
  <ellipse cx="86" cy="178" rx="12" ry="4.2"/>
  <!-- Torso V-taper -->
  <path d="M 32 56 L 68 56 L 63 118 L 37 118 Z"/>
  <!-- Arms + mittens -->
  <path d="M 32 58 L 14 104 L 20 108 L 34 62 Z"/>
  <path d="M 68 58 L 86 104 L 80 108 L 66 62 Z"/>
  <circle cx="12" cy="108" r="6.2"/>
  <circle cx="88" cy="108" r="6.2"/>
  <!-- Neck -->
  <rect x="44" y="48" width="12" height="10" rx="1.5"/>
  <!-- Head (slight float above neck) -->
  <circle cx="50" cy="30" r="15.5"/>
  <!-- Hilt / guard (viewer-right shoulder) -->
  <path d="M 62 44 L 76 50 L 73 58 L 59 52 Z"/>
  <path d="M 65 51 L 76 54 L 75 58 L 64 55 Z"/>
</svg>
